PathFileType	4	(X/Y/Z)	c:/Users/goper/Files/vsCode/490R/osim_files/A02/A02_PWS_05.trc
DataRate	CameraRate	NumFrames	NumMarkers	Units                	OrigDataRate	OrigDataStartFrame	OrigNumFrames
250.00	250.00	5	36	mm	250.0	1958	2610
                Frame#	Time	Mobility_markerset:LPSIS			Mobility_markerset:LASIS			Mobility_markerset:LTH1			Mobility_markerset:LTH2			Mobility_markerset:LTH3			Mobility_markerset:LTH4			Mobility_markerset:LLFE			Mobility_markerset:LMFE			Mobility_markerset:LSH1			Mobility_markerset:LSH2			Mobility_markerset:LSH3			Mobility_markerset:LSH4			Mobility_markerset:LLMAL			Mobility_markerset:LMMAL			Mobility_markerset:LCAL			Mobility_markerset:LMTP5			Mobility_markerset:LTOE			Mobility_markerset:LMTP1			Mobility_markerset:RPSIS			Mobility_markerset:RASIS			Mobility_markerset:RTH1			Mobility_markerset:RTH2			Mobility_markerset:RTH3			Mobility_markerset:RTH4			Mobility_markerset:RLFE			Mobility_markerset:RMFE			Mobility_markerset:RSH1			Mobility_markerset:RSH2			Mobility_markerset:RSH3			Mobility_markerset:RSH4			Mobility_markerset:RLMAL			Mobility_markerset:RMMAL			Mobility_markerset:RCAL			Mobility_markerset:RMTP1			Mobility_markerset:RTOE			Mobility_markerset:RMTP5		
		X1	Y1	Z1	X2	Y2	Z2	X3	Y3	Z3	X4	Y4	Z4	X5	Y5	Z5	X6	Y6	Z6	X7	Y7	Z7	X8	Y8	Z8	X9	Y9	Z9	X10	Y10	Z10	X11	Y11	Z11	X12	Y12	Z12	X13	Y13	Z13	X14	Y14	Z14	X15	Y15	Z15	X16	Y16	Z16	X17	Y17	Z17	X18	Y18	Z18	X19	Y19	Z19	X20	Y20	Z20	X21	Y21	Z21	X22	Y22	Z22	X23	Y23	Z23	X24	Y24	Z24	X25	Y25	Z25	X26	Y26	Z26	X27	Y27	Z27	X28	Y28	Z28	X29	Y29	Z29	X30	Y30	Z30	X31	Y31	Z31	X32	Y32	Z32	X33	Y33	Z33	X34	Y34	Z34	X35	Y35	Z35	X36	Y36	Z36

1958	7.82800	-2782.22388	994.86224	280.36337	-2921.84766	955.38190	368.77563	-2823.36890	701.18005	377.31860	0.00000	0.00000	0.00000	-2879.39624	707.49255	403.84961	-2883.18994	662.91327	394.50018	-2889.10327	489.11255	349.48453	-2922.30176	469.74774	236.36067	-2811.48560	421.78250	338.27261	-2800.83252	377.89218	341.72107	-2868.20361	405.29559	350.98312	-2851.68140	363.93680	354.69040	-2787.68408	127.37820	307.47189	-2805.06958	129.52502	226.52232	-2719.08350	120.92542	261.00024	-2862.48706	50.62897	332.49432	-2919.57568	58.76040	269.62537	-2880.45215	42.08512	220.85013	0.00000	0.00000	0.00000	0.00000	0.00000	0.00000	-2951.52759	650.80267	92.12849	-2968.72070	608.79437	87.86707	-3013.06445	663.76910	90.84106	-3018.57520	620.88403	87.28115	-3004.94775	502.60681	75.13920	-3026.40088	502.65613	208.05371	0.00000	0.00000	0.00000	0.00000	0.00000	0.00000	-3071.77905	323.52225	85.76371	-3074.12427	276.46411	91.37224	-3038.54517	110.08831	93.44253	-3050.53760	112.65448	177.62967	-2991.02246	80.74670	136.73785	-3178.44580	93.72003	167.27745	-3197.11792	110.03268	132.72214	-3168.47363	93.60783	75.35742
1959	7.83200	-2786.51855	994.16638	278.53900	-2925.68652	954.74500	368.70892	-2826.26636	700.98218	377.19275	0.00000	0.00000	0.00000	-2882.34302	706.96460	403.82437	-2885.84009	662.03516	394.43427	-2890.88818	488.53833	349.32294	-2924.11548	469.04440	236.25772	-2812.93945	421.59579	337.94501	-2802.46680	377.93961	341.62244	-2869.55054	404.76724	350.82980	-2852.87402	363.55435	354.43106	-2787.74634	127.38771	307.13605	-2805.27295	129.45792	226.23698	-2719.08813	120.82404	260.70273	-2862.42188	50.63386	332.42126	-2919.54785	58.70458	269.57648	-2880.48315	41.98376	220.76727	0.00000	0.00000	0.00000	0.00000	0.00000	0.00000	-2959.17310	649.60150	91.14335	-2974.57397	607.71844	88.24168	-3018.62158	663.21460	91.19413	-3024.50757	620.28796	87.64284	-3012.10474	501.80658	75.57265	-3033.86108	502.17123	208.43654	0.00000	0.00000	0.00000	0.00000	0.00000	0.00000	-3082.13159	323.82358	85.97363	-3085.04517	276.81024	91.57217	-3052.29199	110.02848	93.68628	-3064.45508	112.73260	177.92072	-3005.37915	79.86460	137.12311	-3192.99536	96.28435	167.03558	-3211.27393	112.76505	132.48587	-3182.24902	95.38903	75.37103
1960	7.83600	-2790.58130	993.74414	278.55441	-2929.65894	954.07477	368.59167	-2829.41064	700.67993	377.31116	0.00000	0.00000	0.00000	-2885.82397	707.05933	404.25140	-2887.94458	661.56830	393.17484	-2892.72070	487.88797	349.14682	-2925.97144	468.27341	236.09528	-2814.55469	421.45105	337.92105	-2803.75562	377.77338	341.34338	-2871.04712	404.28851	350.66843	-2854.06396	363.23212	354.09415	-2787.53784	127.32406	306.76141	-2805.33813	129.31354	225.92632	-2719.06836	120.68968	260.42572	-2862.38159	50.66331	332.35739	-2919.52344	58.69267	269.50681	-2880.53662	41.85231	220.69450	0.00000	0.00000	0.00000	0.00000	0.00000	0.00000	-2964.83423	648.29242	91.52770	-2980.52808	606.48358	88.77916	-3024.07764	662.51562	91.49723	-3030.42798	619.65002	87.96134	-3019.27905	501.04523	76.00481	-3041.37695	501.70047	208.79736	0.00000	0.00000	0.00000	0.00000	0.00000	0.00000	-3092.32153	324.20239	86.18120	-3096.04980	277.34250	91.81264	-3065.80054	110.17885	94.04078	-3078.27832	112.92951	178.19920	-3019.54297	78.98862	137.47566	-3207.00171	98.51442	166.98047	-3224.33984	114.84612	132.34355	-3196.16382	97.51576	75.37034
1961	7.84000	-2794.30371	994.18842	280.50333	0.00000	0.00000	0.00000	-2832.37451	700.37372	377.34952	0.00000	0.00000	0.00000	-2888.64087	706.08258	404.02374	0.00000	0.00000	0.00000	-2894.71069	487.26434	349.04034	-2927.85547	467.53796	235.91719	-2815.88916	421.06998	337.52435	-2804.97192	377.64166	341.05676	-2872.35376	403.65942	350.41513	-2855.19653	362.59055	353.86688	-2787.53882	127.24860	306.47366	-2805.43018	129.16855	225.59145	-2719.03613	120.55857	260.09735	-2862.32715	50.68449	332.24338	-2919.53052	58.69182	269.46066	-2880.56592	41.72381	220.62514	0.00000	0.00000	0.00000	-2794.98901	897.84357	367.70422	-2970.75781	647.03223	91.57317	-2986.73999	605.25275	89.10833	-3029.59277	661.74561	91.83159	-3036.51294	618.99854	88.29850	-3028.67505	501.28391	75.66011	-3048.82690	501.16885	209.16302	0.00000	0.00000	0.00000	0.00000	0.00000	0.00000	-3102.41431	324.58536	86.40228	-3106.87476	277.70316	92.01363	0.00000	0.00000	0.00000	-3091.86304	113.04415	178.41075	-3033.66675	76.96173	136.54697	-3220.45410	100.34125	167.04616	-3238.38867	117.86080	132.25221	-3209.79541	99.56529	75.33176
1962	7.84400	0.00000	0.00000	0.00000	0.00000	0.00000	0.00000	-2835.91602	701.01202	380.33527	0.00000	0.00000	0.00000	0.00000	0.00000	0.00000	-2893.78027	660.26526	393.00638	-2896.72070	486.55194	348.85611	-2929.68799	466.70822	235.69904	-2817.43457	420.79413	337.25616	-2806.37305	377.34283	340.77615	-2873.75684	403.00525	350.18423	-2856.39917	362.06308	353.63480	-2787.56738	127.19292	306.20844	-2805.33643	128.96645	225.31709	-2718.97974	120.40530	259.82187	-2862.34009	50.79021	332.14673	-2919.34204	59.04016	269.39078	-2880.57422	41.58655	220.56853	0.00000	0.00000	0.00000	-2799.26733	897.07678	367.61761	0.00000	0.00000	0.00000	-2992.88965	604.03369	89.49179	-3035.08325	660.88928	92.17620	-3042.41992	618.20258	88.65072	-3035.99390	500.46725	75.99589	-3056.29590	500.65186	209.51305	0.00000	0.00000	0.00000	0.00000	0.00000	0.00000	-3112.50342	324.92734	86.64462	-3117.75195	278.16922	92.21150	0.00000	0.00000	0.00000	-3105.41846	113.38116	178.68262	-3047.37671	76.65170	136.67920	-3234.51099	103.05398	167.00702	-3251.51025	120.13407	132.53117	-3223.45190	101.70963	75.36966
